<svg xmlns="http://www.w3.org/2000/svg" width="100%" height="100%">
    <style>
        .bg { fill: #f8fafc; }
        .icon { stroke: #cbd5e1; }
        .text { fill: #94a3b8; font-family: ui-sans-serif, system-ui, -apple-system, BlinkMacSystemFont, "Segoe UI", Roboto, "Helvetica Neue", Arial, sans-serif; font-size: 14px; font-weight: 500; }
        @media (prefers-color-scheme: dark) {
            .bg { fill: #0f172a; }
            .icon { stroke: #334155; }
            .text { fill: #475569; }
        }
    </style>
    <rect width="100%" height="100%" class="bg"/>
    <svg x="50%" y="50%" overflow="visible">
        <g transform="translate(-24, -34)">
            <svg width="48" height="48" viewBox="0 0 24 24" fill="none" class="icon" stroke-width="2" stroke-linecap="round" stroke-linejoin="round">
                <line x1="2" x2="22" y1="2" y2="22"/>
                <path d="M10.41 10.41a2 2 0 1 1-2.83-2.83"/>
                <line x1="13.5" x2="6" y1="13.5" y2="21"/>
                <line x1="18" x2="21" y1="12" y2="15"/>
                <path d="M3.59 3.59A1.99 1.99 0 0 0 3 5v14a2 2 0 0 0 2 2h14c.55 0 1.05-.22 1.41-.59"/>
                <path d="M21 15V5a2 2 0 0 0-2-2H9"/>
            </svg>
        </g>
        <text x="0" y="28" text-anchor="middle" class="text">Image not found</text>
    </svg>
</svg>
